<!-- Generated by IcoMoon.io -->
<svg version="1.1" xmlns="http://www.w3.org/2000/svg" width="880" height="1024" viewBox="0 0 880 1024">
<title></title>
<g id="icomoon-ignore">
</g>
<path fill="#fdfdfd" d="M446.071 2.805c3.467 1.628 3.467 1.628 6.904 3.693 1.957 1.16 1.957 1.16 3.953 2.344 1.393 0.843 2.787 1.686 4.222 2.555 3.018 1.795 6.038 3.588 9.058 5.381 1.563 0.933 3.127 1.865 4.738 2.826 7.837 4.645 15.74 9.174 23.64 13.711 10.803 6.22 21.582 12.475 32.313 18.82 8.799 5.192 17.658 10.279 26.515 15.372 12.684 7.296 25.302 14.693 37.874 22.181 13.653 8.129 27.394 16.080 41.209 23.928 13.931 7.918 27.732 16.038 41.499 24.238 10.706 6.368 21.48 12.6 32.313 18.749 8.618 4.901 17.167 9.909 25.692 14.97 12.798 7.596 25.669 15.060 38.567 22.484 14.444 8.316 28.842 16.71 43.232 25.12 4.318 2.522 8.637 5.041 12.957 7.558 2.184 1.273 2.184 1.273 4.413 2.572 2.716 1.583 5.433 3.166 8.149 4.749 2.551 1.487 5.075 3.021 7.57 4.601 3.805 2.081 6.673 3.254 10.735 4.457 7.393 2.579 13.31 5.665 17.894 12.186 4.443 14.26 3.072 30.271 2.768 45.033-0.103 6.29-0.068 12.579-0.050 18.869 0.012 10.889-0.062 21.774-0.196 32.661-0.194 15.741-0.256 31.481-0.286 47.223-0.052 25.541-0.211 51.081-0.436 76.622-0.219 24.805-0.388 49.61-0.489 74.416-0.009 2.295-0.009 2.295-0.019 4.636-0.031 7.675-0.061 15.35-0.091 23.025-0.247 63.641-0.667 127.279-1.2 190.918-1.050 0.605-2.1 1.21-3.182 1.834-3.942 2.272-7.884 4.544-11.825 6.817-1.697 0.979-3.395 1.957-5.092 2.935-11.763 6.778-23.484 13.618-35.133 20.59-12.931 7.701-25.933 15.262-39.014 22.707-24.169 13.756-48.171 27.787-72.094 41.966-11.354 6.716-22.786 13.293-34.224 19.866-10.993 6.331-21.917 12.772-32.816 19.263-14.57 8.672-29.24 17.146-43.977 25.531-11.892 6.768-23.727 13.627-35.536 20.538-10.293 6.021-20.617 11.984-30.953 17.931-12.446 7.165-24.838 14.414-37.187 21.745-12.006 7.114-24.093 14.085-36.191 21.041-1.464 0.842-2.928 1.683-4.436 2.551-1.295 0.743-2.59 1.487-3.924 2.253-3.693 2.066-3.693 2.066-7.109 4.585-4.699 2.301-6.996 1.767-11.976 0.34-3.725-1.757-3.725-1.757-7.518-4-1.431-0.836-2.861-1.673-4.335-2.535-1.528-0.91-3.055-1.821-4.629-2.759-1.621-0.953-3.243-1.904-4.865-2.854-3.37-1.975-6.737-3.956-10.101-5.941-7.776-4.581-15.609-9.064-23.434-13.561-18.667-10.761-37.274-21.624-55.877-32.497-4.168-2.436-8.337-4.871-12.507-7.305-1.385-0.809-2.77-1.617-4.196-2.45-10.24-5.972-20.509-11.892-30.785-17.802-12.535-7.212-25.006-14.525-37.436-21.918-18.372-10.925-36.872-21.619-55.408-32.263-20.137-11.564-40.207-23.224-60.166-35.092-18.303-10.869-36.76-21.468-55.225-32.058-3.080-1.767-6.159-3.535-9.238-5.304-2.82-1.621-5.641-3.239-8.464-4.853-2.787-1.602-5.543-3.258-8.271-4.959-4.648-2.759-9.413-4.741-14.426-6.751-11.382-5.008-23.453-10.374-28.621-22.354-3.107-13.415-2.746-27.122-2.468-40.817 0.089-6.249-0.026-12.495-0.114-18.743-0.139-12.217-0.091-24.425 0.026-36.642 0.091-9.931 0.111-19.861 0.082-29.792-0.004-1.417-0.008-2.834-0.013-4.293-0.009-2.879-0.018-5.757-0.027-8.636-0.078-26.952 0.055-53.9 0.263-80.851 0.174-23.101 0.176-46.196 0.051-69.296-0.146-26.863-0.192-53.723-0.075-80.587 0.012-2.867 0.024-5.734 0.036-8.601 0.009-2.115 0.009-2.115 0.018-4.274 0.036-9.915 0.001-19.828-0.059-29.743-0.072-12.091-0.032-24.175 0.148-36.265 0.089-6.165 0.13-12.32 0.036-18.485-0.499-35.966-0.499-35.966 7.224-45.35 7.317-6.114 15.317-9.89 24.223-13.147 4.617-1.754 8.494-4.053 12.66-6.691 2.461-1.437 4.924-2.872 7.386-4.307 1.375-0.802 2.751-1.604 4.168-2.431 8.796-5.124 17.612-10.215 26.436-15.29 14.054-8.084 28.053-16.249 41.988-24.536 19.869-11.815 39.892-23.353 59.938-34.864 17.024-9.78 34.003-19.627 50.878-29.662 16.869-10.031 33.841-19.873 50.86-29.649 24.95-14.337 49.842-28.772 74.686-43.293 45.868-26.809 45.868-26.809 66.483-38.555 2.222-1.292 4.422-2.622 6.579-4.019 5.815-3.717 8.685-3.929 15.31-2.314z"></path>
<path fill="#292019" d="M446.071 2.805c3.467 1.628 3.467 1.628 6.904 3.693 1.957 1.16 1.957 1.16 3.953 2.344 1.393 0.843 2.787 1.686 4.222 2.555 3.018 1.795 6.038 3.588 9.058 5.381 1.563 0.933 3.127 1.865 4.738 2.826 7.837 4.645 15.74 9.174 23.64 13.711 10.803 6.22 21.582 12.475 32.313 18.82 8.799 5.192 17.658 10.279 26.515 15.372 12.684 7.296 25.302 14.693 37.874 22.181 13.653 8.129 27.394 16.080 41.209 23.928 13.931 7.918 27.732 16.038 41.499 24.238 10.706 6.368 21.48 12.6 32.313 18.749 8.618 4.901 17.167 9.909 25.692 14.97 12.798 7.596 25.669 15.060 38.567 22.484 14.444 8.316 28.842 16.71 43.232 25.12 4.318 2.522 8.637 5.041 12.957 7.558 2.184 1.273 2.184 1.273 4.413 2.572 2.716 1.583 5.433 3.166 8.149 4.749 2.551 1.487 5.075 3.021 7.57 4.601 3.805 2.081 6.673 3.254 10.735 4.457 7.393 2.579 13.31 5.665 17.894 12.186 4.443 14.26 3.072 30.271 2.768 45.033-0.103 6.29-0.068 12.579-0.050 18.869 0.012 10.889-0.062 21.774-0.196 32.661-0.194 15.741-0.256 31.481-0.286 47.223-0.052 25.541-0.211 51.081-0.436 76.622-0.219 24.805-0.388 49.61-0.489 74.416-0.009 2.295-0.009 2.295-0.019 4.636-0.031 7.675-0.061 15.35-0.091 23.025-0.247 63.641-0.667 127.279-1.2 190.918-1.050 0.605-2.1 1.21-3.182 1.834-3.942 2.272-7.884 4.544-11.825 6.817-1.697 0.979-3.395 1.957-5.092 2.935-11.763 6.778-23.484 13.618-35.133 20.59-12.931 7.701-25.933 15.262-39.014 22.707-24.169 13.756-48.171 27.787-72.094 41.966-11.354 6.716-22.786 13.293-34.224 19.866-10.993 6.331-21.917 12.772-32.816 19.263-14.57 8.672-29.24 17.146-43.977 25.531-11.892 6.768-23.727 13.627-35.536 20.538-10.293 6.021-20.617 11.984-30.953 17.931-12.446 7.165-24.838 14.414-37.187 21.745-12.006 7.114-24.093 14.085-36.191 21.041-1.464 0.842-2.928 1.683-4.436 2.551-1.295 0.743-2.59 1.487-3.924 2.253-3.693 2.066-3.693 2.066-7.109 4.585-4.699 2.301-6.996 1.767-11.976 0.34-3.725-1.757-3.725-1.757-7.518-4-1.431-0.836-2.861-1.673-4.335-2.535-1.528-0.91-3.055-1.821-4.629-2.759-1.621-0.953-3.243-1.904-4.865-2.854-3.37-1.975-6.737-3.956-10.101-5.941-7.776-4.581-15.609-9.064-23.434-13.561-18.667-10.761-37.274-21.624-55.877-32.497-4.168-2.436-8.337-4.871-12.507-7.305-1.385-0.809-2.77-1.617-4.196-2.45-10.24-5.972-20.509-11.892-30.785-17.802-12.535-7.212-25.006-14.525-37.436-21.918-18.372-10.925-36.872-21.619-55.408-32.263-20.137-11.564-40.207-23.224-60.166-35.092-18.303-10.869-36.76-21.468-55.225-32.058-3.080-1.767-6.159-3.535-9.238-5.304-2.82-1.621-5.641-3.239-8.464-4.853-2.787-1.602-5.543-3.258-8.271-4.959-4.648-2.759-9.413-4.741-14.426-6.751-11.382-5.008-23.453-10.374-28.621-22.354-3.107-13.415-2.746-27.122-2.468-40.817 0.089-6.249-0.026-12.495-0.114-18.743-0.139-12.217-0.091-24.425 0.026-36.642 0.091-9.931 0.111-19.861 0.082-29.792-0.004-1.417-0.008-2.834-0.013-4.293-0.009-2.879-0.018-5.757-0.027-8.636-0.078-26.952 0.055-53.9 0.263-80.851 0.174-23.101 0.176-46.196 0.051-69.296-0.146-26.863-0.192-53.723-0.075-80.587 0.012-2.867 0.024-5.734 0.036-8.601 0.009-2.115 0.009-2.115 0.018-4.274 0.036-9.915 0.001-19.828-0.059-29.743-0.072-12.091-0.032-24.175 0.148-36.265 0.089-6.165 0.13-12.32 0.036-18.485-0.499-35.966-0.499-35.966 7.224-45.35 7.317-6.114 15.317-9.89 24.223-13.147 4.617-1.754 8.494-4.053 12.66-6.691 2.461-1.437 4.924-2.872 7.386-4.307 1.375-0.802 2.751-1.604 4.168-2.431 8.796-5.124 17.612-10.215 26.436-15.29 14.054-8.084 28.053-16.249 41.988-24.536 19.869-11.815 39.892-23.353 59.938-34.864 17.024-9.78 34.003-19.627 50.878-29.662 16.869-10.031 33.841-19.873 50.86-29.649 24.95-14.337 49.842-28.772 74.686-43.293 45.868-26.809 45.868-26.809 66.483-38.555 2.222-1.292 4.422-2.622 6.579-4.019 5.815-3.717 8.685-3.929 15.31-2.314zM432.088 26.307c-1.449 0.841-2.897 1.682-4.39 2.548-1.575 0.922-3.149 1.844-4.772 2.794-1.647 0.959-3.294 1.916-4.942 2.874-3.43 1.993-6.857 3.989-10.284 5.987-6.323 3.683-12.665 7.333-19.007 10.983-14.555 8.377-29.076 16.811-43.574 25.286-10.19 5.952-20.412 11.848-30.642 17.73-12.535 7.212-25.006 14.525-37.436 21.918-13.938 8.29-27.941 16.458-42 24.542-10.102 5.809-20.181 11.658-30.241 17.54-11.576 6.768-23.181 13.48-34.805 20.164-12.535 7.212-25.006 14.525-37.436 21.918-18.372 10.925-36.873 21.617-55.408 32.263-6.402 3.679-12.801 7.362-19.2 11.047-2.133 1.225-2.133 1.225-4.31 2.474-2.75 1.583-5.474 3.212-8.167 4.891-3.684 2.020-6.262 3.14-10.168 4.254-6.637 2.255-11.734 5.044-15.668 11-3.951 13.65-2.71 28.886-2.442 42.972 0.091 6.015 0.060 12.030 0.044 18.046-0.011 10.415 0.055 20.826 0.173 31.24 0.171 15.056 0.226 30.111 0.252 45.168 0.046 24.43 0.186 48.858 0.385 73.287 0.193 23.726 0.342 47.452 0.432 71.179 0.006 1.463 0.011 2.926 0.017 4.434 0.027 7.341 0.054 14.681 0.080 22.022 0.218 60.871 0.589 121.741 1.059 182.611 1.049 0.605 2.099 1.21 3.18 1.833 3.941 2.271 7.881 4.543 11.822 6.815 1.697 0.978 3.393 1.956 5.090 2.934 11.822 6.812 23.605 13.681 35.316 20.681 13.937 8.293 27.941 16.458 42 24.542 11.496 6.611 22.956 13.281 34.405 19.974 10.19 5.952 20.412 11.847 30.642 17.73 14.133 8.131 28.174 16.409 42.187 24.744 12.359 7.34 24.788 14.551 37.249 21.716 10.102 5.809 20.181 11.658 30.241 17.54 11.667 6.819 23.358 13.595 35.068 20.34 13.092 7.541 26.156 15.13 39.2 22.755 12.029 7.026 24.087 14.001 36.176 20.924 6.845 3.928 13.651 7.889 20.35 12.063 1.645 1.014 1.645 1.014 3.324 2.048 1.991 1.234 3.969 2.488 5.931 3.767 2.868 1.849 2.868 1.849 7.239 3.67 5.194-1.582 9.717-4.22 14.395-6.942 1.435-0.832 2.869-1.663 4.348-2.52 1.54-0.899 3.080-1.798 4.666-2.724 1.631-0.948 3.262-1.895 4.893-2.841 2.533-1.47 5.065-2.94 7.596-4.412 5.581-3.246 11.172-6.473 16.771-9.689 15.416-8.855 30.773-17.799 46.049-26.893 14.57-8.672 29.24-17.146 43.977-25.531 11.897-6.771 23.738-13.633 35.551-20.547 10.14-5.932 20.315-11.803 30.499-17.659 14.114-8.12 28.139-16.38 42.128-24.713 8.13-4.834 16.283-9.621 24.491-14.323 0.837-0.48 1.674-0.96 2.536-1.454 4.006-2.295 8.015-4.582 12.031-6.858 1.428-0.816 2.855-1.631 4.326-2.471 1.25-0.709 2.5-1.419 3.788-2.149 4.296-2.682 8.369-5.635 11.96-9.226 1.103-0.311 2.206-0.622 3.342-0.942 7.295-2.678 13.667-6.661 20.329-10.63 3.039-1.792 6.078-3.584 9.118-5.375 1.548-0.916 3.096-1.832 4.69-2.776 24.802-14.656 49.787-29.003 74.74-43.399 0-162.016 0-324.033 0-490.959-12.961-7.406-25.923-14.813-39.277-22.444-17.008-9.907-17.008-9.907-25.277-14.745-8.763-5.122-17.562-10.179-26.362-15.238-14.133-8.131-28.174-16.409-42.187-24.744-12.357-7.339-24.784-14.548-37.242-21.713-10.16-5.844-20.301-11.72-30.423-17.63-1.38-0.806-2.76-1.612-4.183-2.442-5.543-3.237-11.084-6.476-16.626-9.715-15.892-9.287-31.801-18.544-47.751-27.733-18.727-10.789-37.393-21.679-56.052-32.585-4.168-2.436-8.337-4.871-12.507-7.305-2.066-1.207-2.066-1.207-4.175-2.438-11.972-6.983-23.985-13.893-36.003-20.798-11.091-6.39-22.086-12.927-32.991-19.631-1.068-0.651-2.136-1.301-3.237-1.972-0.929-0.571-1.857-1.143-2.814-1.731-4.888-2.558-7.679 0.078-12.090 2.652z"></path>
<path fill="#399d65" d="M653.677 694.356c6.018 0 12.036 0 18.236 0 0.694 2.083 0.694 2.083 1.403 4.208 1.725-0.134 3.45-0.268 5.227-0.405 2.29-0.158 4.581-0.315 6.871-0.471 1.134-0.090 2.268-0.181 3.436-0.274 6.872-0.447 11.583 0.203 18.132 2.553 1.521-0.029 3.041-0.058 4.608-0.088 6.752 0.114 12.148 2.003 18.449 4.296 1.842 0.661 1.842 0.661 3.721 1.335 45.369 16.712 45.369 16.712 51.775 29.526-5.351 2.058-8.823 0.608-14.027-1.403 1.389 2.083 1.389 2.083 2.805 4.208 0 1.389 0 2.777 0 4.208-1.852 0.463-3.703 0.926-5.611 1.403-4.208-5.085-4.208-5.085-4.208-9.819 1.389-0.926 2.777-1.852 4.208-2.805-2.523-2.523-6.404-2.29-9.819-2.805-2.981-0.497-5.962-0.994-8.942-1.49-1.486-0.248-2.973-0.495-4.504-0.751-1.117-0.186-2.235-0.372-3.386-0.564-0.463 1.389-0.926 2.777-1.403 4.208 2.777 0.926 5.555 1.852 8.416 2.805-1.507 4.089-2.494 6.702-5.611 9.819-4.384 0.175-4.384 0.175-8.416 0 0 1.852 0 3.703 0 5.611-2.083-0.694-2.083-0.694-4.208-1.403-0.964-2.893-0.964-2.893-1.403-5.611-2.777 0-5.555 0-8.416 0 0.694 0.839 1.389 1.678 2.104 2.542 2.104 3.068 2.104 3.068 2.104 7.277-3.604 1.802-6.685 1.865-10.696 2.192-1.407 0.118-2.814 0.235-4.263 0.356-1.081 0.085-2.163 0.17-3.277 0.258 0.926 1.389 1.852 2.777 2.805 4.208-3.156 0.964-3.156 0.964-7.014 1.403-3.244-2.016-3.244-2.016-5.611-4.208-0.463 1.389-0.926 2.777-1.403 4.208-0.463-2.315-0.926-4.629-1.403-7.014-1.862-0.501-3.735-0.958-5.611-1.403-1.331-0.318-2.662-0.636-4.033-0.964-5.138-0.514-8.17 0.106-12.8 2.367-1.359 2.851-1.359 2.851-1.403 5.611-3.678-1.471-5.322-2.314-7.364-5.786-0.347-0.868-0.694-1.736-1.052-2.63-2.083 0.694-2.083 0.694-4.208 1.403-1.533-0.231-3.067-0.463-4.647-0.701-5.024-0.681-8.676-0.377-13.589 0.701 1.389 0.694 1.389 0.694 2.805 1.403 0 0.926 0 1.852 0 2.805-4.166 2.315-8.332 4.629-12.625 7.014 2.777-0.694 2.777-0.694 5.611-1.403-1.67 4.1-3.216 5.983-6.575 9.030-1.070 1.186-2.141 2.372-3.244 3.595 0.323 3.724 0.323 3.724 1.403 7.014-0.926 0.926-1.852 1.852-2.805 2.805-0.608 1.533-1.215 3.067-1.841 4.647-2.145 5.216-5.055 8.509-9.381 12.186-4.208 1.403-4.208 1.403-7.074 0.312-0.993-0.537-1.985-1.074-3.008-1.627-1.004-0.533-2.007-1.067-3.041-1.616-0.761-0.421-1.523-0.843-2.307-1.277 0-2.315 0-4.629 0-7.014-2.315 0-4.629 0-7.014 0 0-0.926 0-1.852 0-2.805-5.951 2.232-10.486 4.575-15.43 8.592-5.22 4.119-8.833 5.161-15.43 5.436 0-0.926 0-1.852 0-2.805-0.926 0-1.852 0-2.805 0 0.773-5.54 1.949-10.309 4.208-15.43-1.389 0-2.777 0-4.208 0-0.694-2.083-0.694-2.083-1.403-4.208 5.26-4.208 5.26-4.208 8.416-4.208 0-0.926 0-1.852 0-2.805-0.926 0-1.852 0-2.805 0 0-0.926 0-1.852 0-2.805 0.926 0 1.852 0 2.805 0 1.508-3.72 2.938-7.412 4.208-11.222 1.389 0 2.777 0 4.208 0 0-0.926 0-1.852 0-2.805-1.606 1.085-1.606 1.085-3.244 2.192-1.244 0.665-2.488 1.331-3.77 2.016-1.389-0.463-2.777-0.926-4.208-1.403 0.405-0.778 0.81-1.555 1.227-2.356 0.521-1.016 1.042-2.032 1.578-3.079 0.521-1.009 1.042-2.018 1.578-3.058 1.419-2.657 1.419-2.657 1.227-5.534 8.091-7.779 15.873-12.386 27.266-12.8 1.186 0.058 2.372 0.116 3.595 0.175-0.926 0.926-1.852 1.852-2.805 2.805 0.926 0 1.852 0 2.805 0 0.636-1.128 1.273-2.257 1.929-3.419 2.279-3.595 2.279-3.595 4.822-4.471 1.013-0.174 2.025-0.347 3.068-0.526 1.418-0.723 2.835-1.447 4.296-2.192 4.121-2.016 4.121-2.016 8.329-2.016 0-0.926 0-1.852 0-2.805 1.852-0.926 3.703-1.852 5.611-2.805 0-1.389 0-2.777 0-4.208 3.24 0 6.481 0 9.819 0 0-0.926 0-1.852 0-2.805 2.455-2.016 2.455-2.016 5.611-4.208 1.345-1.172 1.345-1.172 2.718-2.367 3.542-2.254 5.786-2.184 9.907-1.841 0-1.389 0-2.777 0-4.208z"></path>
<path fill="#3b9e67" d="M479.737 800.964c1.542 4.625 1.222 6.179 0.088 10.784-0.273 1.134-0.546 2.268-0.827 3.436-0.219 0.863-0.438 1.725-0.663 2.614 0.463-0.463 0.926-0.926 1.403-1.403 1.852 0 3.703 0 5.611 0 0-0.926 0-1.852 0-2.805 3.703-0.926 7.406-1.852 11.222-2.805-0.738 1.215-0.738 1.215-1.49 2.455-1.657 3.068-1.657 3.068-0.526 6.049 0.203 0.897 0.405 1.794 0.614 2.718-1.841 2.455-1.841 2.455-4.208 4.208-0.926 0-1.852 0-2.805 0-0.463 1.389-0.926 2.777-1.403 4.208-1.403-2.805-1.403-2.805-1.403-7.014-1.389 0-2.777 0-4.208 0 0 4.166 0 8.332 0 12.625 0.926 0.463 1.852 0.926 2.805 1.403-0.463 1.389-0.926 2.777-1.403 4.208-0.926 0-1.852 0-2.805 0 0 5.092 0 10.184 0 15.43 0.926 0 1.852 0 2.805 0 0.564-1.259 0.564-1.259 1.14-2.542 1.655-3.048 3.39-4.901 5.874-7.277 1.821-3.119 1.821-3.119 1.403-8.416-0.926 0-1.852 0-2.805 0-0.694-3.472-0.694-3.472-1.403-7.014 1.649-1.215 1.649-1.215 3.332-2.455 3.76-2.755 3.76-2.755 4.926-6.044 1.562-2.723 1.562-2.723 4.449-3.934 1.101-0.208 2.202-0.416 3.337-0.63 1.098-0.226 2.195-0.452 3.326-0.685 3.074-0.279 3.074-0.279 7.282 1.123-3.741 3.741-7.481 7.481-11.222 11.222 1.389 0.463 2.777 0.926 4.208 1.403-0.463 1.215-0.926 2.43-1.403 3.682-2.449 8.329-1.617 17.188-1.403 25.775 1.389 0.463 2.777 0.926 4.208 1.403-1.345 0.955-1.345 0.955-2.718 1.929-4.271 5.436-4.038 10.966-4.296 17.71 1.389 0 2.777 0 4.208 0 0.463-3.703 0.926-7.406 1.403-11.222 1.389 0.694 1.389 0.694 2.805 1.403 0.926-1.389 1.852-2.777 2.805-4.208 1.389 0 2.777 0 4.208 0 0-0.926 0-1.852 0-2.805 1.389 0.694 1.389 0.694 2.805 1.403-0.644 0.85-1.287 1.7-1.951 2.575-4.481 6.119-8.225 11.725-10.762 18.904-2.412 6.689-5.298 9.61-11.134 13.589 0.463 1.389 0.926 2.777 1.403 4.208-5.977 6.66-5.977 6.66-10.608 8.241-3.418 0.175-5.744-0.406-9.030-1.227-3.761 0.541-3.761 0.541-7.014 1.403-0.463 1.389-0.926 2.777-1.403 4.208-2.083 1.389-2.083 1.389-4.208 2.805-1.888 7.823-1.387 12.392 1.704 19.71 1.712 4.25 2.416 7.982 2.504 12.553-2.718 3.419-2.718 3.419-5.611 5.611-2.649-3.973-3.381-5.889-4.258-10.411-0.238-1.208-0.476-2.416-0.721-3.66-0.238-1.259-0.476-2.517-0.721-3.814-0.243-1.237-0.486-2.474-0.737-3.748-2.14-11.019-3.658-21.665-3.647-32.899 0.001-1.115 0.002-2.23 0.003-3.379 0.114-10.874 2.18-20.182 5.871-30.462-1.389 0.926-2.777 1.852-4.208 2.805 0.359-2.487 0.744-4.971 1.14-7.452 0.212-1.383 0.423-2.767 0.641-4.192 1.098-4.056 2.219-5.242 5.233-7.995 0.352-3.683 0.352-3.683 0-7.014 1.389-0.694 1.389-0.694 2.805-1.403 0 1.852 0 3.703 0 5.611 0.926 0 1.852 0 2.805 0 0.463 1.389 0.926 2.777 1.403 4.208 1.122-4.611 1.538-6.607 0-11.222-0.926 0-1.852 0-2.805 0 0.463-2.777 0.926-5.555 1.403-8.416-0.926 0-1.852 0-2.805 0 0.463-1.852 0.926-3.703 1.403-5.611 2.315-0.463 4.629-0.926 7.014-1.403-1.389-0.926-2.777-1.852-4.208-2.805 3.326-8.591 7.050-17.036 11.222-25.249z"></path>
<path fill="#0e6158" d="M538.652 490.959c5.932-0.245 11.862-0.394 17.797-0.526 2.521-0.106 2.521-0.106 5.093-0.214 12.176-0.203 12.176-0.203 18.2 3.841 4.283 6.959 3.402 15.684 3.271 23.551 0.041 2.447 0.041 2.447 0.082 4.942-0.076 13.283-0.076 13.283-3.353 18.608-7.372 4.95-14.645 3.99-23.293 3.627-1.708-0.038-3.416-0.076-5.175-0.115-4.21-0.099-8.415-0.237-12.622-0.411 0-2.315 0-4.629 0-7.014 1.852 0 3.703 0 5.611 0 0-12.961 0-25.923 0-39.277-1.852 0-3.703 0-5.611 0 0-2.315 0-4.629 0-7.014z"></path>
<path fill="#0b5f56" d="M263.014 489.907c1.029-0.033 2.058-0.065 3.118-0.099 5.431 0.058 9.383 0.868 13.693 4.285 5.762 6.642 4.747 15.203 4.581 23.518 0.033 1.631 0.065 3.262 0.099 4.942-0.091 13.286-0.091 13.286-4.679 18.575-5.228 4.144-10.338 4.391-16.811 4.186-1.029 0.033-2.058 0.065-3.118 0.099-5.431-0.058-9.383-0.868-13.693-4.285-5.762-6.642-4.747-15.203-4.581-23.518-0.033-1.631-0.065-3.262-0.099-4.942 0.091-13.286 0.091-13.286 4.679-18.575 5.228-4.144 10.338-4.391 16.811-4.186z"></path>
<path fill="#0b5f56" d="M351.386 384.701c1.029-0.033 2.058-0.065 3.118-0.099 5.431 0.058 9.383 0.868 13.693 4.285 5.762 6.642 4.747 15.203 4.581 23.518 0.033 1.631 0.065 3.262 0.099 4.942-0.091 13.286-0.091 13.286-4.679 18.575-5.228 4.144-10.338 4.391-16.811 4.186-1.029 0.033-2.058 0.065-3.118 0.099-5.431-0.058-9.383-0.868-13.693-4.285-5.762-6.642-4.747-15.203-4.581-23.518-0.033-1.631-0.065-3.262-0.099-4.942 0.091-13.286 0.091-13.286 4.679-18.575 5.228-4.144 10.338-4.391 16.811-4.186z"></path>
<path fill="#065c53" d="M368.921 595.112c1.114-0.033 2.228-0.065 3.375-0.099 5.911 0.059 8.636 0.698 13.49 4.285 4.754 6.879 3.782 15.512 3.649 23.518 0.041 2.447 0.041 2.447 0.082 4.942-0.076 13.285-0.076 13.285-3.732 18.575-5.749 4.249-9.883 4.39-16.866 4.186-1.114 0.033-2.228 0.065-3.375 0.099-5.911-0.059-8.636-0.698-13.49-4.285-4.754-6.879-3.782-15.512-3.649-23.518-0.027-1.631-0.054-3.262-0.082-4.942 0.076-13.285 0.076-13.285 3.732-18.575 5.749-4.249 9.883-4.39 16.866-4.186z"></path>
<path fill="#0f6258" d="M298.784 482.542c5.555 0 11.11 0 16.833 0 5.092 13.887 10.184 27.774 15.43 42.082 4.558-13.323 4.558-13.323 9.107-26.649 0.566-1.648 1.132-3.297 1.715-4.995 0.87-2.545 0.87-2.545 1.759-5.142 1.447-3.893 1.447-3.893 2.85-5.296 2.833-0.102 5.669-0.118 8.504-0.088 2.324 0.019 2.324 0.019 4.696 0.038 1.199 0.016 2.398 0.033 3.633 0.049 0 2.315 0 4.629 0 7.014-1.852 0-3.703 0-5.611 0 0 15.739 0 31.477 0 47.693 1.852 0 3.703 0 5.611 0 0 2.315 0 4.629 0 7.014-6.481 0-12.961 0-19.638 0 0-2.315 0-4.629 0-7.014 1.852 0 3.703 0 5.611 0-0.694-18.053-0.694-18.053-1.403-36.471-4.166 12.036-8.332 24.071-12.625 36.471-2.777 0-5.555 0-8.416 0-4.629-12.961-9.258-25.923-14.027-39.277-0.463 12.961-0.926 25.923-1.403 39.277 1.852 0 3.703 0 5.611 0 0 2.315 0 4.629 0 7.014-6.018 0-12.036 0-18.236 0 0-2.315 0-4.629 0-7.014 1.852 0 3.703 0 5.611 0 0-15.739 0-31.477 0-47.693-1.852 0-3.703 0-5.611 0 0-2.315 0-4.629 0-7.014z"></path>
<path fill="#14655c" d="M495.167 385.753c6.018 0 12.036 0 18.236 0 6.944 13.424 13.887 26.848 21.041 40.679 0.463-11.11 0.926-22.219 1.403-33.666-1.852 0-3.703 0-5.611 0 0-2.315 0-4.629 0-7.014 6.481 0 12.961 0 19.638 0 0 2.315 0 4.629 0 7.014-1.852 0-3.703 0-5.611 0 0 15.276 0 30.552 0 46.29-4.166 0-8.332 0-12.625 0-6.944-13.424-13.887-26.848-21.041-40.679-0.463 11.11-0.926 22.219-1.403 33.666 1.852 0 3.703 0 5.611 0 0 2.315 0 4.629 0 7.014-6.481 0-12.961 0-19.638 0 0-2.315 0-4.629 0-7.014 1.852 0 3.703 0 5.611 0 0-12.961 0-25.923 0-39.277-1.852 0-3.703 0-5.611 0 0-2.315 0-4.629 0-7.014z"></path>
<path fill="#11635a" d="M403.989 596.164c5.435-0.245 10.868-0.394 16.307-0.526 1.535-0.071 3.070-0.141 4.652-0.214 12.798-0.233 12.798-0.233 17.934 4.411 4.68 5.864 4.381 11.407 3.967 18.658-0.937 5.206-1.89 8.151-6.016 11.507-7.207 2.796-15.242 1.793-22.816 1.233 0 3.703 0 7.406 0 11.222 2.315 0 4.629 0 7.014 0 0 2.315 0 4.629 0 7.014-6.944 0-13.887 0-21.041 0 0-2.315 0-4.629 0-7.014 1.852 0 3.703 0 5.611 0 0-12.961 0-25.923 0-39.277-1.852 0-3.703 0-5.611 0 0-2.315 0-4.629 0-7.014z"></path>
<path fill="#106359" d="M387.156 385.753c5.435-0.245 10.868-0.394 16.307-0.526 1.535-0.071 3.070-0.141 4.652-0.214 12.798-0.233 12.798-0.233 17.934 4.411 4.68 5.864 4.381 11.407 3.967 18.658-0.937 5.206-1.89 8.151-6.016 11.507-7.207 2.796-15.242 1.793-22.816 1.233 0 3.703 0 7.406 0 11.222 1.852 0 3.703 0 5.611 0 0 2.315 0 4.629 0 7.014-6.481 0-12.961 0-19.638 0 0-2.315 0-4.629 0-7.014 1.852 0 3.703 0 5.611 0 0-12.961 0-25.923 0-39.277-1.852 0-3.703 0-5.611 0 0-2.315 0-4.629 0-7.014z"></path>
<path fill="#0f6259" d="M512 596.164c6.018 0 12.036 0 18.236 0 2.952 5.669 5.904 11.338 8.855 17.008 0.834 1.602 1.669 3.204 2.529 4.855 0.809 1.555 1.618 3.11 2.452 4.712 1.113 2.138 1.113 2.138 2.248 4.318 2.154 4.18 4.257 8.385 6.36 12.591 0.463-12.036 0.926-24.071 1.403-36.471-2.315 0-4.629 0-7.014 0 0-2.315 0-4.629 0-7.014 6.481 0 12.961 0 19.638 0 0 2.315 0 4.629 0 7.014-1.852 0-3.703 0-5.611 0 0 15.276 0 30.552 0 46.29-3.703 0-7.406 0-11.222 0-7.772-13.416-15.201-26.97-22.444-40.679-0.463 11.11-0.926 22.219-1.403 33.666 1.852 0 3.703 0 5.611 0 0 2.315 0 4.629 0 7.014-6.481 0-12.961 0-19.638 0 0-2.315 0-4.629 0-7.014 1.852 0 3.703 0 5.611 0 0-12.961 0-25.923 0-39.277-1.852 0-3.703 0-5.611 0 0-2.315 0-4.629 0-7.014z"></path>
<path fill="#106359" d="M713.995 490.959c6.944 0 13.887 0 21.041 0 0 4.208 0 8.416 0 12.625 1.497 5.557 3.459 10.96 5.348 16.395 0.5 1.502 1 3.003 1.515 4.551 0.493 1.426 0.985 2.852 1.493 4.321 0.448 1.309 0.896 2.617 1.358 3.965 0.498 1.001 0.995 2.001 1.508 3.032 1.389 0.463 2.777 0.926 4.208 1.403 0 2.315 0 4.629 0 7.014-6.018 0-12.036 0-18.236 0 0-2.315 0-4.629 0-7.014 1.852 0 3.703 0 5.611 0-0.926-2.777-1.852-5.555-2.805-8.416-6.944-0.463-13.887-0.926-21.041-1.403-0.926 3.24-1.852 6.481-2.805 9.819 1.852 0 3.703 0 5.611 0 0 2.315 0 4.629 0 7.014-6.018 0-12.036 0-18.236 0 0-2.315 0-4.629 0-7.014 1.852 0 3.703 0 5.611 0 0.358-1.792 0.716-3.584 1.085-5.43 1.636-7.364 4.12-14.273 6.805-21.31 0.456-1.214 0.911-2.428 1.381-3.679 1.11-2.955 2.228-5.908 3.353-8.858-0.926 0-1.852 0-2.805 0 0-2.315 0-4.629 0-7.014z"></path>
<path fill="#0e6158" d="M607.386 490.959c7.406 0 14.813 0 22.444 0 0 2.315 0 4.629 0 7.014-0.926 0-1.852 0-2.805 0 0.382 1.090 0.765 2.18 1.159 3.303 1.722 4.917 3.438 9.837 5.153 14.757 0.602 1.716 1.204 3.432 1.825 5.2 0.57 1.636 1.139 3.273 1.726 4.959 0.529 1.513 1.058 3.027 1.603 4.586 1.159 3.666 1.159 3.666 1.159 6.472 1.389 0 2.777 0 4.208 0 0 2.315 0 4.629 0 7.014-5.555 0-11.11 0-16.833 0 0-2.315 0-4.629 0-7.014 1.389 0 2.777 0 4.208 0-0.926-2.777-1.852-5.555-2.805-8.416-6.944-0.463-13.887-0.926-21.041-1.403-0.463 3.24-0.926 6.481-1.403 9.819 1.389 0 2.777 0 4.208 0 0 2.315 0 4.629 0 7.014-5.555 0-11.11 0-16.833 0 0-2.315 0-4.629 0-7.014 1.389 0 2.777 0 4.208 0 0.206-0.837 0.412-1.674 0.625-2.537 3.237-12.521 7.6-24.592 12-36.74-0.926 0-1.852 0-2.805 0 0-2.315 0-4.629 0-7.014z"></path>
<path fill="#0e6158" d="M492.362 490.959c7.406 0 14.813 0 22.444 0 0 2.315 0 4.629 0 7.014-0.926 0-1.852 0-2.805 0 0.382 1.090 0.765 2.18 1.159 3.303 1.722 4.917 3.438 9.837 5.153 14.757 0.602 1.716 1.204 3.432 1.825 5.2 0.57 1.636 1.139 3.273 1.726 4.959 0.529 1.513 1.058 3.027 1.603 4.586 1.159 3.666 1.159 3.666 1.159 6.472 1.389 0 2.777 0 4.208 0 0 2.315 0 4.629 0 7.014-5.555 0-11.11 0-16.833 0 0-2.315 0-4.629 0-7.014 1.389 0 2.777 0 4.208 0-0.926-2.777-1.852-5.555-2.805-8.416-6.944-0.463-13.887-0.926-21.041-1.403-0.463 3.24-0.926 6.481-1.403 9.819 1.389 0 2.777 0 4.208 0 0 2.315 0 4.629 0 7.014-5.555 0-11.11 0-16.833 0 0-2.315 0-4.629 0-7.014 1.389 0 2.777 0 4.208 0 0.206-0.837 0.412-1.674 0.625-2.537 3.237-12.521 7.6-24.592 12-36.74-0.926 0-1.852 0-2.805 0 0-2.315 0-4.629 0-7.014z"></path>
<path fill="#3d9f68" d="M554.082 823.408c2.844 5.866 3.065 10.534 2.893 17.008-0.224 7.055-0.224 7.055 1.315 13.852 0.48 1.867 0.95 3.737 1.403 5.611 2.777 0.463 5.555 0.926 8.416 1.403-2.63 5.436-2.63 5.436-4.208 7.014-7.956-0.549-13.722-2.297-21.041-5.611-3.898-0.97-3.898-0.97-7.014-1.403-0.463 1.389-0.926 2.777-1.403 4.208-4.822 2.455-4.822 2.455-9.819 4.208-0.926-0.463-1.852-0.926-2.805-1.403 0-1.852 0-3.703 0-5.611-0.926 0-1.852 0-2.805 0-0.858-4.783-0.477-7.646 2.088-11.786 2.469-3.235 4.879-6.351 7.732-9.255 0.926 0 1.852 0 2.805 0 0.434-1.215 0.434-1.215 0.877-2.455 2.653-4.341 5.997-6.231 10.345-8.767 0.926 0 1.852 0 2.805 0 0.405-0.897 0.81-1.794 1.227-2.718 1.966-3.605 3.094-4.296 7.189-4.296z"></path>
<path fill="#3ea069" d="M528.833 746.258c0.926 0.463 1.852 0.926 2.805 1.403-1.852 3.24-3.703 6.481-5.611 9.819 0.926 0.463 1.852 0.926 2.805 1.403 0.604 8.753-0.109 12.501-5.611 19.638-5.051 7.15-7.356 12.206-8.416 21.041-4.819 3.212-6.993 3.056-12.625 2.805-0.694-2.083-0.694-2.083-1.403-4.208-0.926-0.463-1.852-0.926-2.805-1.403 0-0.926 0-1.852 0-2.805-5.124 1.753-6.706 2.344-9.819 7.014-1.389-0.463-2.777-0.926-4.208-1.403 2.51-9.535 6.237-16.215 12.625-23.671 0.802-0.958 1.604-1.917 2.43-2.904 20.38-24.053 20.38-24.053 28.43-25.326 0.463-0.463 0.926-0.926 1.403-1.403z"></path>
<path fill="#0b6056" d="M151.252 481.373c0.977 0.039 1.955 0.078 2.962 0.118 1.001 0.024 2.002 0.049 3.033 0.074 5.476 0.308 9.703 0.814 13.888 4.485 3.866 5.147 3.447 9.928 2.805 16.132-2.315 0-4.629 0-7.014 0-0.651-2.387-0.651-2.387-1.315-4.822-0.97-4.7-0.97-4.7-2.893-6.4-2.538-0.175-5.083-0.246-7.627-0.263-1.387-0.020-2.774-0.040-4.203-0.060-3.833-0.044-3.833-0.044-6.405 3.129-0.438 4.041-0.438 4.041-0.373 8.767-0.005 2.626-0.005 2.626-0.011 5.304 0.011 1.837 0.022 3.674 0.033 5.567-0.011 1.837-0.022 3.674-0.033 5.567 0.004 1.75 0.007 3.501 0.011 5.304 0.003 1.613 0.006 3.226 0.010 4.888-0.035 4.079-0.035 4.079 3.168 6.685 3.646 0.448 3.646 0.448 7.715 0.351 1.374 0.007 2.748 0.014 4.164 0.022 3.788-0.021 3.788-0.021 6.356-3.178 0.648-3.412 0.648-3.412 0.877-7.189 0.105-1.277 0.21-2.553 0.318-3.868 0.069-0.98 0.137-1.96 0.208-2.97-3.703 0-7.406 0-11.222 0 0-2.315 0-4.629 0-7.014 6.018 0 12.036 0 18.236 0 0.229 3.803 0.395 7.591 0.526 11.397 0.106 1.6 0.106 1.6 0.214 3.233 0.152 5.879-0.312 9.625-4.274 14.137-4.932 4.223-9.865 4.761-16.192 4.548-1.461 0.049-1.461 0.049-2.951 0.099-5.62-0.064-7.89-0.868-11.963-4.782-3.805-4.894-4.138-8.915-4.165-15.13-0.007-0.964-0.013-1.929-0.020-2.923-0.005-2.028 0.008-4.055 0.037-6.083 0.038-3.086 0-6.166-0.045-9.252 0.005-1.98 0.014-3.96 0.027-5.94 0.008-1.783 0.016-3.566 0.024-5.403 1.657-9.023 6.41-14.353 16.094-14.529z"></path>
<path fill="#11645a" d="M187.967 490.959c12.961 0 25.923 0 39.277 0 0 5.092 0 10.184 0 15.43-1.852 0-3.703 0-5.611 0 0-2.777 0-5.555 0-8.416-6.481 0-12.961 0-19.638 0 0 5.555 0 11.11 0 16.833 6.018 0 12.036 0 18.236 0 0 1.852 0 3.703 0 5.611-6.018 0-12.036 0-18.236 0 0 5.555 0 11.11 0 16.833 6.018 0 12.036 0 18.236 0 0-2.777 0-5.555 0-8.416 2.315 0 4.629 0 7.014 0 0 5.092 0 10.184 0 15.43-12.961 0-25.923 0-39.277 0 0-2.315 0-4.629 0-7.014 1.852 0 3.703 0 5.611 0 0-12.961 0-25.923 0-39.277-1.852 0-3.703 0-5.611 0 0-2.315 0-4.629 0-7.014z"></path>
<path fill="#11645a" d="M440.46 385.753c12.961 0 25.923 0 39.277 0 0 5.092 0 10.184 0 15.43-1.852 0-3.703 0-5.611 0 0-2.777 0-5.555 0-8.416-6.481 0-12.961 0-19.638 0 0 5.555 0 11.11 0 16.833 6.018 0 12.036 0 18.236 0 0 1.852 0 3.703 0 5.611-6.018 0-12.036 0-18.236 0 0 5.555 0 11.11 0 16.833 6.018 0 12.036 0 18.236 0 0-2.777 0-5.555 0-8.416 2.315 0 4.629 0 7.014 0 0 5.092 0 10.184 0 15.43-12.961 0-25.923 0-39.277 0 0-2.315 0-4.629 0-7.014 1.852 0 3.703 0 5.611 0 0-12.961 0-25.923 0-39.277-1.852 0-3.703 0-5.611 0 0-2.315 0-4.629 0-7.014z"></path>
<path fill="#0a5f55" d="M378.74 490.959c12.961 0 25.923 0 39.277 0 0 5.555 0 11.11 0 16.833-2.315 0-4.629 0-7.014 0 0-3.24 0-6.481 0-9.819-6.481 0-12.961 0-19.638 0 0 5.555 0 11.11 0 16.833 6.481 0 12.961 0 19.638 0 0 1.852 0 3.703 0 5.611-6.481 0-12.961 0-19.638 0 0 6.018 0 12.036 0 18.236 6.481 0 12.961 0 19.638 0 0-3.703 0-7.406 0-11.222 2.315 0 4.629 0 7.014 0 0 5.555 0 11.11 0 16.833-12.961 0-25.923 0-39.277 0 0-2.315 0-4.629 0-7.014 1.852 0 3.703 0 5.611 0 0-12.961 0-25.923 0-39.277-1.852 0-3.703 0-5.611 0 0-2.315 0-4.629 0-7.014z"></path>
<path fill="#075d53" d="M458.696 596.164c12.498 0 24.997 0 37.874 0 0 5.092 0 10.184 0 15.43-1.852 0-3.703 0-5.611 0 0-2.777 0-5.555 0-8.416-6.481 0-12.961 0-19.638 0 0 5.555 0 11.11 0 16.833 6.481 0 12.961 0 19.638 0 0 1.852 0 3.703 0 5.611-6.481 0-12.961 0-19.638 0 0 5.555 0 11.11 0 16.833 6.481 0 12.961 0 19.638 0 0-2.777 0-5.555 0-8.416 1.852 0 3.703 0 5.611 0 0 5.092 0 10.184 0 15.43-12.498 0-24.997 0-37.874 0 0-2.315 0-4.629 0-7.014 1.852 0 3.703 0 5.611 0 0-12.961 0-25.923 0-39.277-1.852 0-3.703 0-5.611 0 0-2.315 0-4.629 0-7.014z"></path>
<path fill="#f7f9f9" d="M262.926 497.534c2.428-0.035 2.428-0.035 4.904-0.071 4.301 0.51 4.301 0.51 6.639 2.207 2.473 3.319 2.413 5.41 2.429 9.524 0.008 2.040 0.008 2.040 0.016 4.121-0.016 1.418-0.033 2.835-0.049 4.296 0.016 1.418 0.033 2.835 0.049 4.296-0.005 1.36-0.011 2.72-0.016 4.121-0.007 1.866-0.007 1.866-0.014 3.77-0.654 3.895-1.583 5.151-4.753 7.452-4.301 0.51-4.301 0.51-9.205 0.438-1.622-0.005-3.244-0.011-4.915-0.016-4.115-0.422-4.115-0.422-6.921-3.227-0.363-3.364-0.363-3.364-0.373-7.54-0.004-1.497-0.007-2.994-0.011-4.537 0.016-2.354 0.016-2.354 0.033-4.756-0.011-1.57-0.022-3.139-0.033-4.756 0.004-1.497 0.007-2.994 0.011-4.537 0.003-1.378 0.006-2.756 0.010-4.175 0.805-7.462 5.932-6.587 12.199-6.608z"></path>
<path fill="#f7f9f9" d="M351.299 392.329c2.428-0.035 2.428-0.035 4.904-0.071 4.301 0.51 4.301 0.51 6.639 2.207 2.473 3.319 2.413 5.41 2.429 9.524 0.008 2.040 0.008 2.040 0.016 4.121-0.016 1.418-0.033 2.835-0.049 4.296 0.016 1.418 0.033 2.835 0.049 4.296-0.005 1.36-0.011 2.72-0.016 4.121-0.007 1.866-0.007 1.866-0.014 3.77-0.654 3.895-1.583 5.151-4.753 7.452-4.301 0.51-4.301 0.51-9.205 0.438-1.622-0.005-3.244-0.011-4.915-0.016-4.115-0.422-4.115-0.422-6.921-3.227-0.363-3.364-0.363-3.364-0.373-7.54-0.004-1.497-0.007-2.994-0.011-4.537 0.016-2.354 0.016-2.354 0.033-4.756-0.011-1.57-0.022-3.139-0.033-4.756 0.004-1.497 0.007-2.994 0.011-4.537 0.003-1.378 0.006-2.756 0.010-4.175 0.805-7.462 5.932-6.587 12.199-6.608z"></path>
<path fill="#fbfcfc" d="M368.921 602.652c1.476-0.011 2.951-0.022 4.471-0.033 4.515 0.64 5.463 1.203 8.153 4.767 0.545 3.244 0.545 3.244 0.559 7.014 0.008 2.040 0.008 2.040 0.016 4.121-0.016 1.418-0.033 2.835-0.049 4.296 0.016 1.418 0.033 2.835 0.049 4.296-0.005 1.36-0.011 2.72-0.016 4.121-0.007 1.866-0.007 1.866-0.014 3.77-0.653 3.888-1.604 5.139-4.753 7.452-3.945 0.559-3.945 0.559-8.416 0.526-1.476 0.011-2.951 0.022-4.471 0.033-4.515-0.64-5.463-1.203-8.153-4.767-0.545-3.244-0.545-3.244-0.559-7.014-0.005-1.36-0.011-2.72-0.016-4.121 0.016-1.418 0.033-2.835 0.049-4.296-0.016-1.418-0.033-2.835-0.049-4.296 0.005-1.36 0.011-2.72 0.016-4.121 0.005-1.244 0.009-2.488 0.014-3.77 1.286-7.663 6.257-8.029 13.169-7.978z"></path>
<path fill="#13655b" d="M429.238 490.959c13.887 0 27.774 0 42.082 0 0 5.092 0 10.184 0 15.43-1.852 0-3.703 0-5.611 0 0-2.777 0-5.555 0-8.416-3.703 0-7.406 0-11.222 0 0 12.961 0 25.923 0 39.277 2.777 0 5.555 0 8.416 0 0 2.315 0 4.629 0 7.014-8.332 0-16.665 0-25.249 0 0-2.315 0-4.629 0-7.014 2.777 0 5.555 0 8.416 0 0-12.961 0-25.923 0-39.277-3.703 0-7.406 0-11.222 0 0 2.777 0 5.555 0 8.416-1.852 0-3.703 0-5.611 0 0-5.092 0-10.184 0-15.43z"></path>
<path fill="#0f6259" d="M649.468 490.959c14.35 0 28.7 0 43.485 0 0 5.555 0 11.11 0 16.833-2.315 0-4.629 0-7.014 0 0-3.24 0-6.481 0-9.819-3.703 0-7.406 0-11.222 0 0 12.961 0 25.923 0 39.277 2.777 0 5.555 0 8.416 0 0 2.315 0 4.629 0 7.014-7.869 0-15.739 0-23.847 0 0-2.315 0-4.629 0-7.014 2.777 0 5.555 0 8.416 0 0-12.961 0-25.923 0-39.277-3.703 0-7.406 0-11.222 0 0 3.24 0 6.481 0 9.819-2.315 0-4.629 0-7.014 0 0-5.555 0-11.11 0-16.833z"></path>
<path fill="#fcfdfc" d="M552.679 497.973c6.018 0 12.036 0 18.236 0 4.656 4.656 4.744 5.083 4.767 11.222 0.008 2.040 0.008 2.040 0.016 4.121-0.016 1.418-0.033 2.835-0.049 4.296 0.016 1.418 0.033 2.835 0.049 4.296-0.005 1.36-0.011 2.72-0.016 4.121-0.007 1.866-0.007 1.866-0.014 3.77-0.545 3.244-0.545 3.244-4.753 7.452-6.018 0-12.036 0-18.236 0 0-12.961 0-25.923 0-39.277z"></path>
<path fill="#3c9f68" d="M705.578 779.923c8.795 0 17.59 0 26.652 0 0.463 1.852 0.926 3.703 1.403 5.611 3.24 0 6.481 0 9.819 0 0.546 2.275 1.067 4.555 1.578 6.838 0.293 1.269 0.586 2.539 0.888 3.847 0.112 1.103 0.224 2.206 0.34 3.342-3.859 3.859-7.053 3.778-12.351 4.247-3.079-0.038-3.079-0.038-6.586-1.616-2.104-2.63-2.104-2.63-3.507-9.644-6.481-0.926-12.961-1.852-19.638-2.805 0.463-3.24 0.926-6.481 1.403-9.819z"></path>
<path fill="#15665d" d="M332.449 582.137c2.315 0 4.629 0 7.014 0-2.268 7.007-4.537 14.013-6.807 21.019-0.769 2.373-1.537 4.747-2.305 7.121-4.841 14.958-9.732 29.898-14.735 44.803-3.472 0.694-3.472 0.694-7.014 1.403 1.881-9.126 4.343-17.825 7.326-26.647 0.429-1.283 0.857-2.566 1.299-3.888 0.899-2.687 1.801-5.374 2.706-8.059 1.389-4.122 2.768-8.247 4.146-12.373 0.877-2.618 1.755-5.237 2.633-7.855 0.414-1.235 0.827-2.469 1.253-3.741 0.384-1.139 0.768-2.277 1.164-3.45 0.337-1.002 0.675-2.005 1.022-3.037 0.895-2.489 0.895-2.489 2.298-5.295z"></path>
<path fill="#5aad7f" d="M479.737 800.964c1.542 4.625 1.222 6.179 0.088 10.784-0.273 1.134-0.546 2.268-0.827 3.436-0.219 0.863-0.438 1.725-0.663 2.614 0.463-0.463 0.926-0.926 1.403-1.403 1.852 0 3.703 0 5.611 0 0-0.926 0-1.852 0-2.805 3.703-0.926 7.406-1.852 11.222-2.805-0.738 1.215-0.738 1.215-1.49 2.455-1.657 3.068-1.657 3.068-0.526 6.049 0.203 0.897 0.405 1.794 0.614 2.718-1.841 2.455-1.841 2.455-4.208 4.208-0.926 0-1.852 0-2.805 0-0.463 1.389-0.926 2.777-1.403 4.208-1.403-2.805-1.403-2.805-1.403-7.014-1.389 0-2.777 0-4.208 0 0 4.166 0 8.332 0 12.625 0.926 0.463 1.852 0.926 2.805 1.403-0.926 1.389-1.852 2.777-2.805 4.208 0-0.926 0-1.852 0-2.805-1.331 0.029-2.662 0.058-4.033 0.088-4.384-0.088-4.384-0.088-7.189-1.49-0.463 2.315-0.926 4.629-1.403 7.014-0.926 0-1.852 0-2.805 0 0.463-2.777 0.926-5.555 1.403-8.416-0.926 0-1.852 0-2.805 0 0.463-1.852 0.926-3.703 1.403-5.611 2.315-0.463 4.629-0.926 7.014-1.403-1.389-0.926-2.777-1.852-4.208-2.805 3.326-8.591 7.050-17.036 11.222-25.249z"></path>
<path fill="#ebf4ef" d="M726.619 751.868c0 0.926 0 1.852 0 2.805-0.926 0-1.852 0-2.805 0 0 0.926 0 1.852 0 2.805 0.926 0.463 1.852 0.926 2.805 1.403 2.805 2.805 2.805 2.805 2.805 8.416-4.208-1.403-4.208-1.403-7.014-4.208-0.926 0-1.852 0-2.805 0 0 0.926 0 1.852 0 2.805 2.315 0.926 4.629 1.852 7.014 2.805-1.389 0.463-2.777 0.926-4.208 1.403-0.463 1.389-0.926 2.777-1.403 4.208-2.315-0.463-4.629-0.926-7.014-1.403 0.463-0.926 0.926-1.852 1.403-2.805-1.186 0.347-2.372 0.694-3.595 1.052-6.175 0.449-9.901-1.564-14.641-5.26-3.419-3.858-3.419-3.858-5.611-7.014 1.389 0.463 2.777 0.926 4.208 1.403 0.463-1.852 0.926-3.703 1.403-5.611 0.81 0.492 1.62 0.984 2.455 1.49 3.658 1.524 5.112 1.218 8.767-0.088-0.926-1.389-1.852-2.777-2.805-4.208 2.717-0.274 5.435-0.534 8.153-0.789 1.513-0.146 3.027-0.293 4.586-0.444 4.093-0.17 4.093-0.17 8.301 1.233z"></path>
<path fill="#12645a" d="M295.978 598.97c0 2.315 0 4.629 0 7.014-3.648 1.881-7.301 3.749-10.959 5.611-1.035 0.535-2.070 1.070-3.137 1.622-0.999 0.506-1.998 1.013-3.027 1.534-0.918 0.47-1.836 0.94-2.783 1.425-2.538 1.030-2.538 1.030-6.746 1.030 0 0.926 0 1.852 0 2.805 1.19 0.372 2.38 0.745 3.605 1.129 4.99 1.739 9.673 3.816 14.455 6.060 1.617 0.756 3.233 1.512 4.899 2.29 1.219 0.575 2.437 1.15 3.693 1.742 0 2.315 0 4.629 0 7.014-7.809-2.33-14.95-5.766-22.268-9.293-1.233-0.589-2.466-1.179-3.737-1.786-3.023-1.446-6.044-2.896-9.063-4.351 0-2.315 0-4.629 0-7.014 16.438-8.219 16.438-8.219 19.419-9.707 2.078-1.041 4.153-2.088 6.225-3.14 7.874-3.986 7.874-3.986 9.425-3.986z"></path>
<path fill="#11645a" d="M566.707 388.559c4.533 2.009 9.061 4.028 13.589 6.049 1.919 0.85 1.919 0.85 3.877 1.718 14.394 6.438 14.394 6.438 17.603 9.066 0.163 3.64 0.163 3.64 0 7.014-5.314 2.581-10.635 5.149-15.956 7.715-1.515 0.736-3.031 1.472-4.592 2.23-1.447 0.696-2.893 1.392-4.384 2.11-1.337 0.646-2.674 1.293-4.051 1.959-3.28 1.416-3.28 1.416-6.086 1.416 0-2.315 0-4.629 0-7.014 3.912-1.879 7.829-3.746 11.748-5.611 1.114-0.535 2.228-1.070 3.375-1.622 1.067-0.506 2.134-1.013 3.233-1.534 1.477-0.705 1.477-0.705 2.983-1.425 2.508-1.030 2.508-1.030 5.313-1.030 0-0.926 0-1.852 0-2.805-0.946-0.128-1.891-0.257-2.866-0.389-5.201-1.271-9.686-3.557-14.405-6.011-1.358-0.693-1.358-0.693-2.742-1.4-2.217-1.133-4.428-2.276-6.638-3.422 0-2.315 0-4.629 0-7.014z"></path>
<path fill="#f8fafa" d="M418.016 603.178c16.049-0.518 16.049-0.518 19.447 1.726 2.008 3.125 2.158 5.096 2.121 8.795 0.011 1.085 0.022 2.17 0.033 3.288-0.559 3.025-0.559 3.025-2.153 5.507-5.49 3.626-13.177 1.928-19.447 1.726 0-6.944 0-13.887 0-21.041z"></path>
<path fill="#0e6158" d="M584.942 600.373c11.786 3.515 22.611 8.711 33.666 14.027 0 2.777 0 5.555 0 8.416-5.346 2.576-10.695 5.146-16.044 7.715-1.527 0.736-3.054 1.472-4.627 2.23-1.451 0.696-2.902 1.392-4.397 2.11-1.344 0.646-2.689 1.293-4.074 1.959-3.121 1.416-3.121 1.416-4.524 1.416 0-2.315 0-4.629 0-7.014 8.332-4.166 16.665-8.332 25.249-12.625-7.772-3.407-7.772-3.407-15.57-6.754-2.93-1.331-5.631-2.632-8.277-4.467-1.452-3.885-1.452-3.885-1.403-7.014z"></path>
<path fill="#f4f8f7" d="M401.184 392.767c16.049-0.518 16.049-0.518 19.447 1.726 2.008 3.125 2.158 5.096 2.121 8.795 0.011 1.085 0.022 2.17 0.033 3.288-0.559 3.025-0.559 3.025-2.153 5.507-5.49 3.626-13.177 1.928-19.447 1.726 0-6.944 0-13.887 0-21.041z"></path>
<path fill="#0f6258" d="M312.811 389.962c0.049 3.129 0.049 3.129-1.403 7.014-3.744 2.597-7.827 4.277-12.011 6.049-3.906 1.707-7.812 3.414-11.836 5.173 8.332 4.166 16.665 8.332 25.249 12.625 0 1.852 0 3.703 0 5.611-4.938-0.829-9.025-2.126-13.529-4.301-1.18-0.565-2.36-1.13-3.575-1.712-1.819-0.886-1.819-0.886-3.674-1.789-1.24-0.596-2.479-1.192-3.756-1.805-3.047-1.466-6.091-2.939-9.132-4.419 0-2.777 0-5.555 0-8.416 4.816-2.351 9.64-4.684 14.466-7.014 1.37-0.669 2.739-1.338 4.151-2.027 1.315-0.633 2.631-1.266 3.986-1.918 1.818-0.882 1.818-0.882 3.673-1.781 3.182-1.288 3.182-1.288 7.39-1.288z"></path>
<path fill="#f7faf8" d="M485.348 822.005c0.463 1.852 0.926 3.703 1.403 5.611 1.852-1.389 3.703-2.777 5.611-4.208 0 1.389 0 2.777 0 4.208-0.694 0.636-1.389 1.273-2.104 1.929-2.495 2.226-2.495 2.226-2.367 6.049 0.087 1.070 0.174 2.141 0.263 3.244 0.926 0 1.852 0 2.805 0 0.463 2.777 0.926 5.555 1.403 8.416-1.389 0.463-2.777 0.926-4.208 1.403-0.926 1.389-1.852 2.777-2.805 4.208-2.805 4.208-2.805 4.208-7.014 5.611-0.038-2.016-0.065-4.033-0.088-6.049-0.016-1.123-0.033-2.246-0.049-3.403 0.137-3.173 0.137-3.173 1.54-7.381 0.926 0 1.852 0 2.805 0-0.328-1.446-0.328-1.446-0.663-2.921-0.273-1.264-0.546-2.528-0.827-3.83-0.277-1.253-0.553-2.506-0.838-3.797-0.477-3.479-0.477-3.479 0.926-7.688 1.389-0.463 2.777-0.926 4.208-1.403z"></path>
<path fill="#e2f0e9" d="M516.208 850.060c3.212 4.819 3.056 6.993 2.805 12.625 0.926 0.463 1.852 0.926 2.805 1.403-1.852 0.463-3.703 0.926-5.611 1.403 0 0.926 0 1.852 0 2.805-1.389 0.463-2.777 0.926-4.208 1.403-1.389 2.083-1.389 2.083-2.805 4.208-0.463-0.463-0.926-0.926-1.403-1.403-0.463 3.24-0.926 6.481-1.403 9.819-2.718 0.789-2.718 0.789-5.611 1.403-1.403-1.403-1.403-1.403-1.43-4.411 0.788-10.149 0.788-10.149 4.148-14.701 2.893-1.929 2.893-1.929 5.699-1.929 0.926-2.315 1.852-4.629 2.805-7.014 0.926 0 1.852 0 2.805 0 0.463-1.852 0.926-3.703 1.403-5.611z"></path>
<path fill="#e8f3ed" d="M608.789 751.868c0.463 1.389 0.926 2.777 1.403 4.208-1.183 0.474-2.365 0.948-3.584 1.436-1.537 0.626-3.074 1.251-4.658 1.896-1.53 0.618-3.060 1.237-4.636 1.874-4.045 1.57-4.045 1.57-6.762 4.614-2.465 0.687-4.953 1.29-7.452 1.841-7.068 1.8-10.521 3.676-14.992 9.381-0.926-0.463-1.852-0.926-2.805-1.403 3.822-8.19 7.188-12.891 15.43-16.833 3.331-0.495 6.611-0.786 9.973-0.97 0.875-0.143 1.75-0.286 2.652-0.433 0.463-0.926 0.926-1.852 1.403-2.805 1.909 0.087 1.909 0.087 3.858 0.175 4.388-0.169 6.503-0.724 10.17-2.981z"></path>
<path fill="#f2f8f5" d="M746.258 735.036c2.652 0.345 2.652 0.345 5.611 1.403 1.468 2.592 1.468 2.592 2.455 5.699 0.34 1.029 0.68 2.058 1.030 3.118 0.239 0.794 0.477 1.588 0.723 2.405-1.389 0-2.777 0-4.208 0-0.463 1.389-0.926 2.777-1.403 4.208-4.629 0-9.258 0-14.027 0-1.389-3.24-2.777-6.481-4.208-9.819 1.042-0.203 2.083-0.405 3.156-0.614 1.909-0.391 1.909-0.391 3.858-0.789 1.562-0.26 1.562-0.26 3.156-0.526 0.81-0.289 1.62-0.579 2.455-0.877 0.463-1.389 0.926-2.777 1.403-4.208z"></path>
<path fill="#deeee5" d="M733.195 771.945c1.070 0.781 2.141 1.562 3.244 2.367 0 0.926 0 1.852 0 2.805 0.984 0.029 1.967 0.058 2.981 0.088 5.968 1.946 8.736 6.247 12.449 11.134-1.389 0-2.777 0-4.208 0 0-0.926 0-1.852 0-2.805-1.794 0.26-3.588 0.521-5.436 0.789-5.436 0.789-5.436 0.789-8.592-0.789-0.463-1.389-0.926-2.777-1.403-4.208-5.092-0.463-10.184-0.926-15.43-1.403 1.852-0.926 3.703-1.852 5.611-2.805 0.958-1.859 1.895-3.729 2.805-5.611 4.208-1.403 4.208-1.403 7.978 0.438z"></path>
<path fill="#ebf1f0" d="M617.205 499.375c0.926 0 1.852 0 2.805 0 0.943 2.715 1.876 5.434 2.805 8.153 0.781 2.27 0.781 2.27 1.578 4.586 1.227 4.093 1.227 4.093 1.227 8.301-4.629 0-9.258 0-14.027 0 0.797-7.652 2.73-13.902 5.611-21.041z"></path>
<path fill="#ebf1f0" d="M502.181 499.375c0.926 0 1.852 0 2.805 0 0.943 2.715 1.876 5.434 2.805 8.153 0.781 2.27 0.781 2.27 1.578 4.586 1.227 4.093 1.227 4.093 1.227 8.301-4.629 0-9.258 0-14.027 0 0.797-7.652 2.73-13.902 5.611-21.041z"></path>
<path fill="#f0f5f4" d="M723.814 499.375c2.805 1.403 2.805 1.403 4.307 5.123 0.732 2.281 0.732 2.281 1.479 4.608 0.495 1.517 0.991 3.034 1.501 4.597 1.129 3.907 1.129 3.907 1.129 6.712-4.629 0-9.258 0-14.027 0 0.797-7.652 2.73-13.902 5.611-21.041z"></path>
<path fill="#49a572" d="M462.904 845.852c0.463 1.852 0.926 3.703 1.403 5.611 0.926 0 1.852 0 2.805 0 2.524 6.52 0.211 10.937-2.384 16.986-1.825 2.652-1.825 2.652-4.658 3.638-1.375 0.206-1.375 0.206-2.778 0.416-0.926 0.463-1.852 0.926-2.805 1.403 0.359-2.487 0.744-4.971 1.14-7.452 0.317-2.075 0.317-2.075 0.641-4.192 1.097-4.054 2.22-5.244 5.233-7.995 0.234-3.624 0.234-3.624 0-7.014 0.463-0.463 0.926-0.926 1.403-1.403z"></path>
<path fill="#bfdfcd" d="M608.789 751.868c0.463 1.389 0.926 2.777 1.403 4.208-8.526 3.997-14.555 6.632-23.847 4.208-0.926 1.852-1.852 3.703-2.805 5.611-2.805-1.403-2.805-1.403-5.611-5.611 4.059-2.029 8.143-1.937 12.63-2.274 1.386-0.263 1.386-0.263 2.8-0.532 0.463-0.926 0.926-1.852 1.403-2.805 1.909 0.087 1.909 0.087 3.858 0.175 4.388-0.169 6.503-0.724 10.17-2.981z"></path>
<path fill="#f5faf7" d="M503.584 864.088c0.926 0 1.852 0 2.805 0 1.356 4.379 1.389 7.744 0.789 12.274-0.143 1.121-0.286 2.242-0.433 3.397-0.176 1.269-0.176 1.269-0.356 2.564-2.718 0.789-2.718 0.789-5.611 1.403-0.463-0.463-0.926-0.926-1.403-1.403 0.053-2.284 0.218-4.565 0.438-6.838 0.11-1.24 0.221-2.481 0.334-3.759 0.63-3.43 0.63-3.43 3.436-7.638z"></path>
<path fill="#9fcfb4" d="M471.408 829.458c2.718 0.964 2.718 0.964 4.121 3.77 0.926-0.463 1.852-0.926 2.805-1.403 0 1.852 0 3.703 0 5.611-5.26 1.578-5.26 1.578-8.416 0-0.463 2.315-0.926 4.629-1.403 7.014-0.926 0-1.852 0-2.805 0 0.463-2.777 0.926-5.555 1.403-8.416-0.926 0-1.852 0-2.805 0 0.526-2.718 0.526-2.718 1.403-5.611 2.805-1.403 2.805-1.403 5.699-0.964z"></path>
<path fill="#bcddca" d="M718.203 763.090c0 1.389 0 2.777 0 4.208 4.166 0.694 4.166 0.694 8.416 1.403-1.389 0.463-2.777 0.926-4.208 1.403-0.463 1.389-0.926 2.777-1.403 4.208-2.315-0.463-4.629-0.926-7.014-1.403 0.463-0.926 0.926-1.852 1.403-2.805-1.692-0.608-1.692-0.608-3.419-1.227-3.595-1.578-3.595-1.578-4.997-4.384 3.875-0.838 7.239-1.403 11.222-1.403z"></path>
<path fill="#85c2a0" d="M749.063 735.036c3.662 1.831 3.76 3.308 5.085 7.101 0.365 1.029 0.731 2.058 1.107 3.118 0.271 0.794 0.542 1.588 0.822 2.405-1.389 0-2.777 0-4.208 0-0.463 1.389-0.926 2.777-1.403 4.208-4.629 0-9.258 0-14.027 0 0-0.926 0-1.852 0-2.805 4.166 0 8.332 0 12.625 0 0-4.629 0-9.258 0-14.027z"></path>
<path fill="#5aad7f" d="M516.208 865.49c0.926 0.463 1.852 0.926 2.805 1.403-1.014 1.421-1.014 1.421-2.049 2.871-0.886 1.251-1.772 2.503-2.685 3.792-1.318 1.855-1.318 1.855-2.663 3.748-2.022 3.019-3.705 5.937-5.227 9.227-1.894-5.682-0.871-9.527 0-15.43 0.926 0.463 1.852 0.926 2.805 1.403 0.926-1.389 1.852-2.777 2.805-4.208 1.389 0 2.777 0 4.208 0 0-0.926 0-1.852 0-2.805z"></path>
<path fill="#91c8a9" d="M464.307 858.477c0.463 0 0.926 0 1.403 0-0.463 3.703-0.926 7.406-1.403 11.222-1.099 0.434-2.199 0.868-3.332 1.315-3.575 1.39-3.575 1.39-6.488 2.893 0.463-3.703 0.926-7.406 1.403-11.222 0.463 0.926 0.926 1.852 1.403 2.805 0.926 0 1.852 0 2.805 0 0.463-1.389 0.926-2.777 1.403-4.208 0.926-0.926 1.852-1.852 2.805-2.805z"></path>
<path fill="#ebf5ef" d="M485.348 822.005c0.463 1.852 0.926 3.703 1.403 5.611 1.852-1.389 3.703-2.777 5.611-4.208 0 4.208 0 4.208-1.666 6.488-3.123 2.369-5.711 2.812-9.556 3.332-1.31-4.223-1.465-5.424 0-9.819 1.389-0.463 2.777-0.926 4.208-1.403z"></path>
<path fill="#55ab7b" d="M474.126 826.214c3.472 1.389 3.472 1.389 7.014 2.805 0 2.315 0 4.629 0 7.014 0.926 0.463 1.852 0.926 2.805 1.403-1.389 2.083-1.389 2.083-2.805 4.208 0-0.926 0-1.852 0-2.805-1.389-0.463-2.777-0.926-4.208-1.403 0-1.389 0-2.777 0-4.208-1.389 0.694-1.389 0.694-2.805 1.403 0-2.777 0-5.555 0-8.416z"></path>
<path fill="#f7faf8" d="M586.345 760.285c4.384-0.263 4.384-0.263 8.416 0-2.593 4.577-4.143 5.587-9.205 7.452-4.822 0.964-4.822 0.964-7.627-0.438 0-1.389 0-2.777 0-4.208 1.852 0.463 3.703 0.926 5.611 1.403 0.926-1.389 1.852-2.777 2.805-4.208z"></path>
<path fill="#5aae7f" d="M566.707 723.814c0 2.338 0 4.676 0 7.014-1.389 0-2.777 0-4.208 0 0 1.389 0 2.777 0 4.208-2.777 0-5.555 0-8.416 0 3.717-5.093 7.039-8.274 12.625-11.222z"></path>
<path fill="#56ac7c" d="M736.438 777.118c4.086 0.12 6.408 0.812 9.353 3.682 2.094 2.467 4.119 4.963 6.077 7.54-1.389 0-2.777 0-4.208 0-0.463-0.926-0.926-1.852-1.403-2.805-1.186-0.694-2.372-1.389-3.595-2.104-1.128-0.694-2.257-1.389-3.419-2.104 0-0.926 0-1.852 0-2.805-0.926-0.463-1.852-0.926-2.805-1.403z"></path>
<path fill="#56ab7b" d="M615.803 706.981c0.463 0.926 0.926 1.852 1.403 2.805-1.345 0.911-1.345 0.911-2.718 1.841-3.268 2.244-3.268 2.244-4.296 6.575 0.926 0.463 1.852 0.926 2.805 1.403-2.315 0-4.629 0-7.014 0 0.175-3.156 0.175-3.156 1.403-7.014 4.296-3.244 4.296-3.244 8.416-5.611z"></path>
<path fill="#84c29f" d="M635.441 706.981c3.24 0 6.481 0 9.819 0-0.897 0.579-1.794 1.157-2.718 1.753-3.188 2.705-3.738 4.018-4.296 8.066-0.463-0.926-0.926-1.852-1.403-2.805-1.389-0.463-2.777-0.926-4.208-1.403 0-0.926 0-1.852 0-2.805 0.926 0 1.852 0 2.805 0 0-0.926 0-1.852 0-2.805z"></path>
<path fill="#a3d1b7" d="M722.411 757.479c4.208 1.403 4.208 1.403 7.014 4.208 0 1.852 0 3.703 0 5.611-4.208-1.403-4.208-1.403-7.014-4.208-0.926-0.463-1.852-0.926-2.805-1.403 0.926-1.389 1.852-2.777 2.805-4.208z"></path>
<path fill="#e5f2eb" d="M608.789 751.868c0.463 1.389 0.926 2.777 1.403 4.208-9.293 4.384-9.293 4.384-14.027 2.805 4.166-2.315 8.332-4.629 12.625-7.014z"></path>
<path fill="#47a470" d="M718.203 763.090c-0.463 1.852-0.926 3.703-1.403 5.611-3.332 0.263-3.332 0.263-7.014 0-0.926-1.389-1.852-2.777-2.805-4.208 3.875-0.838 7.239-1.403 11.222-1.403z"></path>
<path fill="#61b184" d="M691.551 758.882c5.611 0 5.611 0 9.819 1.403 0.463 2.315 0.926 4.629 1.403 7.014-5.49-1.781-8.123-3.523-11.222-8.416z"></path>
<path fill="#4ea776" d="M479.737 800.964c1.403 4.208 1.403 4.208-0.438 9.293-2.367 4.734-2.367 4.734-5.173 6.137 0.851-5.79 2.859-10.285 5.611-15.43z"></path>
<path fill="#5eaf82" d="M625.622 709.786c2.315 0.463 4.629 0.926 7.014 1.403-0.463 1.852-0.926 3.703-1.403 5.611-2.777 0-5.555 0-8.416 0 0.926-0.926 1.852-1.852 2.805-2.805 0-1.389 0-2.777 0-4.208z"></path>
<path fill="#57ac7c" d="M751.868 747.66c-0.463 1.389-0.926 2.777-1.403 4.208-4.629 0-9.258 0-14.027 0 0-0.926 0-1.852 0-2.805 2.045-0.236 4.091-0.469 6.137-0.701 1.139-0.13 2.278-0.26 3.452-0.395 3.036-0.307 3.036-0.307 5.841-0.307z"></path>
<path fill="#b8dbc8" d="M504.986 824.811c1.389 0.463 2.777 0.926 4.208 1.403-0.463 1.852-0.926 3.703-1.403 5.611-2.315 0.463-4.629 0.926-7.014 1.403 2.63-6.838 2.63-6.838 4.208-8.416z"></path>
<path fill="#c8e3d4" d="M500.778 894.948c0.926 0.463 1.852 0.926 2.805 1.403-3.453 6.733-3.453 6.733-7.277 8.153-0.839 0.087-1.678 0.174-2.542 0.263 1.814-4.046 3.73-6.834 7.014-9.819z"></path>
<path fill="#73ba92" d="M516.208 865.49c0.926 0.463 1.852 0.926 2.805 1.403-1.134 1.64-2.275 3.276-3.419 4.91-0.635 0.911-1.269 1.823-1.923 2.762-0.552 0.709-1.103 1.418-1.671 2.148-0.463 0-0.926 0-1.403 0 0-2.315 0-4.629 0-7.014 1.852-0.463 3.703-0.926 5.611-1.403 0-0.926 0-1.852 0-2.805z"></path>
<path fill="#bcddcb" d="M468.515 845.852c0.926 0.926 1.852 1.852 2.805 2.805-0.351 3.595-0.351 3.595-1.403 7.014-1.389 0.694-1.389 0.694-2.805 1.403 0-1.852 0-3.703 0-5.611-0.926-0.463-1.852-0.926-2.805-1.403 1.389-1.389 2.777-2.777 4.208-4.208z"></path>
<path fill="#3b5d43" d="M758.882 814.992c0.926 0.463 1.852 0.926 2.805 1.403-2.542 3.507-2.542 3.507-5.611 7.014-1.389 0-2.777 0-4.208 0 0-1.389 0-2.777 0-4.208 3.332-2.455 3.332-2.455 7.014-4.208z"></path>
</svg>
